<svg width="178" height="65" viewBox="0 0 178 65" fill="none" xmlns="http://www.w3.org/2000/svg">
<path d="M81.1564 14.656L91.1244 36.272L101.092 14.656H110.22V51H103.556V23.392L93.2524 47.024H88.9404L78.3004 22.608V51H71.6924V14.656H81.1564ZM127.598 35.096C129.763 35.096 132.264 35.4507 135.102 36.16V33.472C135.102 31.568 134.71 30.168 133.926 29.272C133.179 28.3387 131.928 27.872 130.174 27.872C128.456 27.872 127.131 28.2267 126.198 28.936C125.264 29.608 124.798 30.5787 124.798 31.848H117.574C117.574 28.7493 118.656 26.5093 120.822 25.128C123.024 23.7467 126.086 23.056 130.006 23.056C135.606 23.056 139.227 25.016 140.87 28.936C141.43 30.28 141.71 31.8667 141.71 33.696V51H135.942L135.438 47.36C133.683 50.3093 130.995 51.784 127.374 51.784C123.864 51.784 121.139 50.9253 119.198 49.208C117.406 47.5653 116.51 45.4933 116.51 42.992C116.51 40.4533 117.499 38.512 119.478 37.168C121.456 35.7867 124.163 35.096 127.598 35.096ZM135.102 40.36C132.899 39.7627 130.846 39.464 128.942 39.464C125.358 39.464 123.566 40.6587 123.566 43.048C123.566 44.056 123.976 44.9333 124.798 45.68C125.619 46.3893 126.926 46.744 128.718 46.744C130.547 46.744 132.04 46.1467 133.198 44.952C134.392 43.72 135.027 42.1893 135.102 40.36ZM149.901 23.728H156.509V51H149.901V23.728ZM149.117 14.992C149.117 13.7973 149.471 12.864 150.181 12.192C150.89 11.4827 151.898 11.128 153.205 11.128C154.474 11.128 155.463 11.4827 156.173 12.192C156.919 12.864 157.293 13.7973 157.293 14.992C157.293 16.1867 156.919 17.1387 156.173 17.848C155.463 18.52 154.474 18.856 153.205 18.856C151.898 18.856 150.89 18.52 150.181 17.848C149.471 17.1387 149.117 16.1867 149.117 14.992ZM165.716 12.584H172.324V51H165.716V12.584Z" fill="black"/>
<path fill-rule="evenodd" clip-rule="evenodd" d="M0 25L23 51H0V25Z" fill="black"/>
<path fill-rule="evenodd" clip-rule="evenodd" d="M23 31.5L5 11L23 11L23 31.5Z" fill="white"/>
<path fill-rule="evenodd" clip-rule="evenodd" d="M46 25L23 51H46V25Z" fill="black"/>
</svg>
