<svg width="179" height="65" viewBox="0 0 179 65" fill="none" xmlns="http://www.w3.org/2000/svg">
<path d="M82.1564 14.656L92.1244 36.272L102.092 14.656H111.22V51H104.556V23.392L94.2524 47.024H89.9404L79.3004 22.608V51H72.6924V14.656H82.1564ZM128.598 35.096C130.763 35.096 133.264 35.4507 136.102 36.16V33.472C136.102 31.568 135.71 30.168 134.926 29.272C134.179 28.3387 132.928 27.872 131.174 27.872C129.456 27.872 128.131 28.2267 127.198 28.936C126.264 29.608 125.798 30.5787 125.798 31.848H118.574C118.574 28.7493 119.656 26.5093 121.822 25.128C124.024 23.7467 127.086 23.056 131.006 23.056C136.606 23.056 140.227 25.016 141.87 28.936C142.43 30.28 142.71 31.8667 142.71 33.696V51H136.942L136.438 47.36C134.683 50.3093 131.995 51.784 128.374 51.784C124.864 51.784 122.139 50.9253 120.198 49.208C118.406 47.5653 117.51 45.4933 117.51 42.992C117.51 40.4533 118.499 38.512 120.478 37.168C122.456 35.7867 125.163 35.096 128.598 35.096ZM136.102 40.36C133.899 39.7627 131.846 39.464 129.942 39.464C126.358 39.464 124.566 40.6587 124.566 43.048C124.566 44.056 124.976 44.9333 125.798 45.68C126.619 46.3893 127.926 46.744 129.718 46.744C131.547 46.744 133.04 46.1467 134.198 44.952C135.392 43.72 136.027 42.1893 136.102 40.36ZM150.901 23.728H157.509V51H150.901V23.728ZM150.117 14.992C150.117 13.7973 150.471 12.864 151.181 12.192C151.89 11.4827 152.898 11.128 154.205 11.128C155.474 11.128 156.463 11.4827 157.173 12.192C157.919 12.864 158.293 13.7973 158.293 14.992C158.293 16.1867 157.919 17.1387 157.173 17.848C156.463 18.52 155.474 18.856 154.205 18.856C152.898 18.856 151.89 18.52 151.181 17.848C150.471 17.1387 150.117 16.1867 150.117 14.992ZM166.716 12.584H173.324V51H166.716V12.584Z" fill="white"/>
<path fill-rule="evenodd" clip-rule="evenodd" d="M0 25L23.5 51H0V25Z" fill="white"/>
<path fill-rule="evenodd" clip-rule="evenodd" d="M47 25L23.5 51H47V25Z" fill="white"/>
<path fill-rule="evenodd" clip-rule="evenodd" d="M23.5 31.5L5.1087 11L23.5 11L23.5 31.5Z" fill="url(#paint0_linear)"/>
<defs>
<linearGradient id="paint0_linear" x1="32.6957" y1="21.25" x2="12.3158" y2="2.96651" gradientUnits="userSpaceOnUse">
<stop stop-color="#C2BFFB"/>
<stop offset="1" stop-color="#E3A7FF"/>
</linearGradient>
</defs>
</svg>
