<svg width="284" height="544" viewBox="0 0 284 544" fill="none" xmlns="http://www.w3.org/2000/svg">
<g clip-path="url(#clip0)">
<circle cx="224" cy="92" r="3" stroke="black" stroke-width="2" stroke-linecap="square"/>
<circle cx="224" cy="64" r="3" stroke="black" stroke-width="2" stroke-linecap="square"/>
<rect x="224" y="116" width="1" height="400" fill="black"/>
<circle cx="224" cy="540" r="4" fill="black"/>
<circle cx="114" cy="540" r="3" stroke="black" stroke-width="2" stroke-linecap="square"/>
<circle cx="114" cy="64" r="3" stroke="black" stroke-width="2" stroke-linecap="square"/>
<rect x="114" y="116" width="1" height="400" fill="black"/>
<circle cx="114" cy="92" r="4" fill="black"/>
<circle cx="4" cy="540" r="3" stroke="black" stroke-width="2" stroke-linecap="square"/>
<circle cx="4" cy="512" r="3" stroke="black" stroke-width="2" stroke-linecap="square"/>
<rect x="4" y="88" width="1" height="400" fill="black"/>
<circle cx="4" cy="64" r="4" fill="black"/>
<circle opacity="0.5" cx="32" cy="54.0002" r="3" stroke="white" stroke-width="2" stroke-linecap="square"/>
<circle opacity="0.5" cx="4" cy="54.0002" r="3" stroke="white" stroke-width="2" stroke-linecap="square"/>
<rect x="56" y="54.0002" width="200" height="1" fill="white"/>
<circle cx="280" cy="54.0001" r="4" fill="white"/>
<circle opacity="0.5" cx="280" cy="44" r="3" stroke="white" stroke-width="2" stroke-linecap="square"/>
<circle opacity="0.5" cx="4" cy="44" r="3" stroke="white" stroke-width="2" stroke-linecap="square"/>
<rect x="56" y="44" width="200" height="1" fill="white"/>
<circle cx="32" cy="44" r="4" fill="white"/>
<circle opacity="0.5" cx="280" cy="34" r="3" stroke="white" stroke-width="2" stroke-linecap="square"/>
<circle opacity="0.5" cx="252" cy="34" r="3" stroke="white" stroke-width="2" stroke-linecap="square"/>
<rect x="28" y="34" width="200" height="1" fill="white"/>
<circle cx="4" cy="34" r="4" fill="white"/>
<circle opacity="0.5" cx="146" cy="4" r="3" stroke="white" stroke-width="2" stroke-linecap="square"/>
<circle opacity="0.5" cx="118" cy="4" r="3" stroke="white" stroke-width="2" stroke-linecap="square"/>
<rect x="28" y="4" width="66" height="1" fill="white"/>
<circle cx="4" cy="4" r="4" fill="white"/>
<circle opacity="0.5" cx="146" cy="14" r="3" stroke="white" stroke-width="2" stroke-linecap="square"/>
<circle opacity="0.5" cx="4" cy="14" r="3" stroke="white" stroke-width="2" stroke-linecap="square"/>
<rect x="56" y="14" width="66" height="1" fill="white"/>
<circle cx="32" cy="14" r="4" fill="white"/>
<circle opacity="0.5" cx="32" cy="24" r="3" stroke="white" stroke-width="2" stroke-linecap="square"/>
<circle opacity="0.5" cx="4" cy="24" r="3" stroke="white" stroke-width="2" stroke-linecap="square"/>
<rect x="56" y="24" width="66" height="1" fill="white"/>
<circle cx="146" cy="24" r="4" fill="white"/>
</g>
<defs>
<clipPath id="clip0">
<rect width="284" height="544" fill="white"/>
</clipPath>
</defs>
</svg>
