<svg width="720" height="677" viewBox="0 0 720 677" fill="none" xmlns="http://www.w3.org/2000/svg">
<g filter="url(#filter0_d)">
<rect x="160" y="320" width="400" height="110" rx="2" fill="white"/>
<rect x="280" y="382" width="180" height="18" rx="2" fill="black"/>
<rect x="280" y="350" width="150" height="12" rx="2" fill="url(#paint0_linear)"/>
<circle cx="220" cy="375" r="30" fill="url(#paint1_linear)"/>
<path d="M219.323 368.02H221.683V381H219.323V368.02Z" fill="black"/>
</g>
<g filter="url(#filter1_d)">
<rect x="280" y="487" width="400" height="110" rx="2" fill="white"/>
<rect x="400" y="549" width="190" height="18" rx="2" fill="black"/>
<rect x="400" y="517" width="230" height="12" rx="2" fill="url(#paint2_linear)"/>
<circle cx="340" cy="542" r="30" fill="black"/>
<path d="M339.779 545.94H345.119V548H337.419V535.02H339.779V545.94Z" fill="white"/>
</g>
<g filter="url(#filter2_d)">
<rect x="40" y="160" width="520" height="110" rx="2" fill="black"/>
<path fill-rule="evenodd" clip-rule="evenodd" d="M482 215C482 224.944 490.059 233 500 233C509.941 233 518 224.944 518 215C518 205.061 509.941 197 500 197C490.059 197 482 205.061 482 215Z" fill="white"/>
<path d="M501.857 213.875V206.333C501.857 205.597 501.26 205 500.524 205H499.333C498.597 205 498 205.597 498 206.333L498 216.667C498 217.403 498.597 218 499.333 218H507.667C508.403 218 509 217.403 509 216.667V215.208C509 214.472 508.403 213.875 507.667 213.875H501.857Z" fill="black"/>
<path d="M40 162C40 160.895 40.8954 160 42 160H440V270H42C40.8954 270 40 269.105 40 268V162Z" fill="white"/>
<rect x="160" y="222" width="120" height="18" rx="2" fill="black"/>
<rect x="160" y="190" width="150" height="12" rx="2" fill="url(#paint3_linear)"/>
<circle cx="100" cy="215" r="30" fill="black"/>
<path d="M99.1002 208.02H102.06L106.32 221H103.82L102.92 218.2H98.1002L97.1802 221H94.6802L99.1002 208.02ZM98.7002 216.42H102.34L100.54 210.84L98.7002 216.42Z" fill="white"/>
</g>
<g filter="url(#filter3_d)">
<rect x="160" width="400" height="110" rx="2" fill="white"/>
<rect x="280" y="62" width="230" height="18" rx="2" fill="black"/>
<rect x="280" y="30" width="120" height="12" rx="2" fill="url(#paint4_linear)"/>
<circle cx="220" cy="55" r="30" fill="url(#paint5_linear)"/>
<path d="M217 48.02L220.56 55.74L224.12 48.02H227.38V61H225V51.14L221.32 59.58H219.78L215.98 50.86V61H213.62V48.02H217Z" fill="black"/>
</g>
<defs>
<filter id="filter0_d" x="120" y="320" width="480" height="190" filterUnits="userSpaceOnUse" color-interpolation-filters="sRGB">
<feFlood flood-opacity="0" result="BackgroundImageFix"/>
<feColorMatrix in="SourceAlpha" type="matrix" values="0 0 0 0 0 0 0 0 0 0 0 0 0 0 0 0 0 0 127 0"/>
<feOffset dy="40"/>
<feGaussianBlur stdDeviation="20"/>
<feColorMatrix type="matrix" values="0 0 0 0 0 0 0 0 0 0 0 0 0 0 0 0 0 0 0.1 0"/>
<feBlend mode="normal" in2="BackgroundImageFix" result="effect1_dropShadow"/>
<feBlend mode="normal" in="SourceGraphic" in2="effect1_dropShadow" result="shape"/>
</filter>
<filter id="filter1_d" x="240" y="487" width="480" height="190" filterUnits="userSpaceOnUse" color-interpolation-filters="sRGB">
<feFlood flood-opacity="0" result="BackgroundImageFix"/>
<feColorMatrix in="SourceAlpha" type="matrix" values="0 0 0 0 0 0 0 0 0 0 0 0 0 0 0 0 0 0 127 0"/>
<feOffset dy="40"/>
<feGaussianBlur stdDeviation="20"/>
<feColorMatrix type="matrix" values="0 0 0 0 0 0 0 0 0 0 0 0 0 0 0 0 0 0 0.1 0"/>
<feBlend mode="normal" in2="BackgroundImageFix" result="effect1_dropShadow"/>
<feBlend mode="normal" in="SourceGraphic" in2="effect1_dropShadow" result="shape"/>
</filter>
<filter id="filter2_d" x="0" y="160" width="600" height="190" filterUnits="userSpaceOnUse" color-interpolation-filters="sRGB">
<feFlood flood-opacity="0" result="BackgroundImageFix"/>
<feColorMatrix in="SourceAlpha" type="matrix" values="0 0 0 0 0 0 0 0 0 0 0 0 0 0 0 0 0 0 127 0"/>
<feOffset dy="40"/>
<feGaussianBlur stdDeviation="20"/>
<feColorMatrix type="matrix" values="0 0 0 0 0 0 0 0 0 0 0 0 0 0 0 0 0 0 0.1 0"/>
<feBlend mode="normal" in2="BackgroundImageFix" result="effect1_dropShadow"/>
<feBlend mode="normal" in="SourceGraphic" in2="effect1_dropShadow" result="shape"/>
</filter>
<filter id="filter3_d" x="120" y="0" width="480" height="190" filterUnits="userSpaceOnUse" color-interpolation-filters="sRGB">
<feFlood flood-opacity="0" result="BackgroundImageFix"/>
<feColorMatrix in="SourceAlpha" type="matrix" values="0 0 0 0 0 0 0 0 0 0 0 0 0 0 0 0 0 0 127 0"/>
<feOffset dy="40"/>
<feGaussianBlur stdDeviation="20"/>
<feColorMatrix type="matrix" values="0 0 0 0 0 0 0 0 0 0 0 0 0 0 0 0 0 0 0.1 0"/>
<feBlend mode="normal" in2="BackgroundImageFix" result="effect1_dropShadow"/>
<feBlend mode="normal" in="SourceGraphic" in2="effect1_dropShadow" result="shape"/>
</filter>
<linearGradient id="paint0_linear" x1="205" y1="356" x2="206.908" y2="379.847" gradientUnits="userSpaceOnUse">
<stop stop-color="#C2BFFB"/>
<stop offset="1" stop-color="#E3A7FF"/>
</linearGradient>
<linearGradient id="paint1_linear" x1="160" y1="375" x2="220" y2="435" gradientUnits="userSpaceOnUse">
<stop stop-color="#C2BFFB"/>
<stop offset="1" stop-color="#E3A7FF"/>
</linearGradient>
<linearGradient id="paint2_linear" x1="285" y1="523" x2="286.249" y2="546.935" gradientUnits="userSpaceOnUse">
<stop stop-color="#C2BFFB"/>
<stop offset="1" stop-color="#E3A7FF"/>
</linearGradient>
<linearGradient id="paint3_linear" x1="85" y1="196" x2="86.9078" y2="219.847" gradientUnits="userSpaceOnUse">
<stop stop-color="#C2BFFB"/>
<stop offset="1" stop-color="#E3A7FF"/>
</linearGradient>
<linearGradient id="paint4_linear" x1="220" y1="36" x2="222.376" y2="59.7624" gradientUnits="userSpaceOnUse">
<stop stop-color="#C2BFFB"/>
<stop offset="1" stop-color="#E3A7FF"/>
</linearGradient>
<linearGradient id="paint5_linear" x1="160" y1="55" x2="220" y2="115" gradientUnits="userSpaceOnUse">
<stop stop-color="#C2BFFB"/>
<stop offset="1" stop-color="#E3A7FF"/>
</linearGradient>
</defs>
</svg>
