<svg width="335" height="175" viewBox="0 0 335 175" fill="none" xmlns="http://www.w3.org/2000/svg">
<g filter="url(#filter0_d)">
<rect x="115" y="80" width="200" height="55" rx="1" fill="white"/>
<rect x="175" y="111" width="90" height="9" rx="1" fill="black"/>
<rect x="175" y="95" width="75" height="6" rx="1" fill="url(#paint0_linear)"/>
<circle cx="145" cy="107.5" r="15" fill="url(#paint1_linear)"/>
<path d="M144.544 103.712H145.96V111.5H144.544V103.712Z" fill="black"/>
</g>
<g filter="url(#filter1_d)">
<rect x="20" width="260" height="55" rx="1" fill="black"/>
<path fill-rule="evenodd" clip-rule="evenodd" d="M241 27.5C241 32.4719 245.029 36.5 250 36.5C254.971 36.5 259 32.4719 259 27.5C259 22.5307 254.971 18.5 250 18.5C245.029 18.5 241 22.5307 241 27.5Z" fill="white"/>
<path d="M250.929 26.9375V23.1667C250.929 22.7985 250.63 22.5 250.262 22.5H249.667C249.298 22.5 249 22.7985 249 23.1667L249 28.3333C249 28.7015 249.298 29 249.667 29H253.833C254.202 29 254.5 28.7015 254.5 28.3333V27.6042C254.5 27.236 254.202 26.9375 253.833 26.9375H250.929Z" fill="black"/>
<path d="M20 0.999999C20 0.447714 20.4477 0 21 0H220V55H21C20.4477 55 20 54.5523 20 54V0.999999Z" fill="white"/>
<rect x="80" y="31" width="60" height="9" rx="1" fill="black"/>
<rect x="80" y="15" width="75" height="6" rx="1" fill="url(#paint2_linear)"/>
<circle cx="50" cy="27.5" r="15" fill="black"/>
<path d="M49.4101 23.712H51.1861L53.7421 31.5H52.2421L51.7021 29.82H48.8101L48.2581 31.5H46.7581L49.4101 23.712ZM49.1701 28.752H51.3541L50.2741 25.404L49.1701 28.752Z" fill="white"/>
</g>
<defs>
<filter id="filter0_d" x="95" y="80" width="240" height="95" filterUnits="userSpaceOnUse" color-interpolation-filters="sRGB">
<feFlood flood-opacity="0" result="BackgroundImageFix"/>
<feColorMatrix in="SourceAlpha" type="matrix" values="0 0 0 0 0 0 0 0 0 0 0 0 0 0 0 0 0 0 127 0"/>
<feOffset dy="20"/>
<feGaussianBlur stdDeviation="10"/>
<feColorMatrix type="matrix" values="0 0 0 0 0 0 0 0 0 0 0 0 0 0 0 0 0 0 0.1 0"/>
<feBlend mode="normal" in2="BackgroundImageFix" result="effect1_dropShadow"/>
<feBlend mode="normal" in="SourceGraphic" in2="effect1_dropShadow" result="shape"/>
</filter>
<filter id="filter1_d" x="0" y="0" width="300" height="95" filterUnits="userSpaceOnUse" color-interpolation-filters="sRGB">
<feFlood flood-opacity="0" result="BackgroundImageFix"/>
<feColorMatrix in="SourceAlpha" type="matrix" values="0 0 0 0 0 0 0 0 0 0 0 0 0 0 0 0 0 0 127 0"/>
<feOffset dy="20"/>
<feGaussianBlur stdDeviation="10"/>
<feColorMatrix type="matrix" values="0 0 0 0 0 0 0 0 0 0 0 0 0 0 0 0 0 0 0.1 0"/>
<feBlend mode="normal" in2="BackgroundImageFix" result="effect1_dropShadow"/>
<feBlend mode="normal" in="SourceGraphic" in2="effect1_dropShadow" result="shape"/>
</filter>
<linearGradient id="paint0_linear" x1="137.5" y1="98" x2="138.454" y2="109.924" gradientUnits="userSpaceOnUse">
<stop stop-color="#C2BFFB"/>
<stop offset="1" stop-color="#E3A7FF"/>
</linearGradient>
<linearGradient id="paint1_linear" x1="115" y1="107.5" x2="145" y2="137.5" gradientUnits="userSpaceOnUse">
<stop stop-color="#C2BFFB"/>
<stop offset="1" stop-color="#E3A7FF"/>
</linearGradient>
<linearGradient id="paint2_linear" x1="42.5" y1="18" x2="43.4539" y2="29.9237" gradientUnits="userSpaceOnUse">
<stop stop-color="#C2BFFB"/>
<stop offset="1" stop-color="#E3A7FF"/>
</linearGradient>
</defs>
</svg>
