<svg width="360" height="306" viewBox="0 0 360 306" fill="none" xmlns="http://www.w3.org/2000/svg">
<g filter="url(#filter0_d)">
<rect x="96" y="192" width="240" height="66" rx="1.2" fill="white"/>
<rect x="168" y="229.2" width="108" height="10.8" rx="1.2" fill="black"/>
<rect x="168" y="210" width="90" height="7.2" rx="1.2" fill="url(#paint0_linear)"/>
<circle cx="132" cy="225" r="18" fill="url(#paint1_linear)"/>
<path d="M131.594 221.012H133.01V228.8H131.594V221.012Z" fill="black"/>
</g>
<g filter="url(#filter1_d)">
<rect x="24" y="96" width="312" height="66" rx="1.2" fill="black"/>
<path fill-rule="evenodd" clip-rule="evenodd" d="M289.2 129C289.2 134.966 294.035 139.8 300 139.8C305.965 139.8 310.8 134.966 310.8 129C310.8 123.037 305.965 118.2 300 118.2C294.035 118.2 289.2 123.037 289.2 129Z" fill="white"/>
<path d="M301.114 128.325V123.8C301.114 123.358 300.756 123 300.314 123H299.6C299.158 123 298.8 123.358 298.8 123.8L298.8 130C298.8 130.442 299.158 130.8 299.6 130.8L304.6 130.8C305.042 130.8 305.4 130.442 305.4 130V129.125C305.4 128.683 305.042 128.325 304.6 128.325H301.114Z" fill="black"/>
<path d="M24 97.2C24 96.5373 24.5373 96 25.2 96H264V162H25.2C24.5373 162 24 161.463 24 160.8V97.2Z" fill="white"/>
<rect x="96" y="133.2" width="72" height="10.8" rx="1.2" fill="black"/>
<rect x="96" y="114" width="90" height="7.2" rx="1.2" fill="url(#paint2_linear)"/>
<circle cx="60" cy="129" r="18" fill="black"/>
<path d="M59.4602 125.012H61.2362L63.7922 132.8H62.2922L61.7522 131.12H58.8602L58.3082 132.8H56.8082L59.4602 125.012ZM59.2202 130.052H61.4042L60.3242 126.704L59.2202 130.052Z" fill="white"/>
</g>
<g filter="url(#filter2_d)">
<rect x="96" width="240" height="66" rx="1.2" fill="white"/>
<rect x="168" y="37.2002" width="138" height="10.8" rx="1.2" fill="black"/>
<rect x="168" y="18" width="72" height="7.2" rx="1.2" fill="url(#paint3_linear)"/>
<circle cx="132" cy="33" r="18" fill="url(#paint4_linear)"/>
<path d="M130.2 29.0118L132.336 33.6438L134.472 29.0118H136.428V36.7998H135V30.8838L132.792 35.9478H131.868L129.588 30.7158V36.7998H128.172V29.0118H130.2Z" fill="black"/>
</g>
<defs>
<filter id="filter0_d" x="72" y="192" width="288" height="114" filterUnits="userSpaceOnUse" color-interpolation-filters="sRGB">
<feFlood flood-opacity="0" result="BackgroundImageFix"/>
<feColorMatrix in="SourceAlpha" type="matrix" values="0 0 0 0 0 0 0 0 0 0 0 0 0 0 0 0 0 0 127 0"/>
<feOffset dy="24"/>
<feGaussianBlur stdDeviation="12"/>
<feColorMatrix type="matrix" values="0 0 0 0 0 0 0 0 0 0 0 0 0 0 0 0 0 0 0.1 0"/>
<feBlend mode="normal" in2="BackgroundImageFix" result="effect1_dropShadow"/>
<feBlend mode="normal" in="SourceGraphic" in2="effect1_dropShadow" result="shape"/>
</filter>
<filter id="filter1_d" x="0" y="96" width="360" height="114" filterUnits="userSpaceOnUse" color-interpolation-filters="sRGB">
<feFlood flood-opacity="0" result="BackgroundImageFix"/>
<feColorMatrix in="SourceAlpha" type="matrix" values="0 0 0 0 0 0 0 0 0 0 0 0 0 0 0 0 0 0 127 0"/>
<feOffset dy="24"/>
<feGaussianBlur stdDeviation="12"/>
<feColorMatrix type="matrix" values="0 0 0 0 0 0 0 0 0 0 0 0 0 0 0 0 0 0 0.1 0"/>
<feBlend mode="normal" in2="BackgroundImageFix" result="effect1_dropShadow"/>
<feBlend mode="normal" in="SourceGraphic" in2="effect1_dropShadow" result="shape"/>
</filter>
<filter id="filter2_d" x="72" y="0" width="288" height="114" filterUnits="userSpaceOnUse" color-interpolation-filters="sRGB">
<feFlood flood-opacity="0" result="BackgroundImageFix"/>
<feColorMatrix in="SourceAlpha" type="matrix" values="0 0 0 0 0 0 0 0 0 0 0 0 0 0 0 0 0 0 127 0"/>
<feOffset dy="24"/>
<feGaussianBlur stdDeviation="12"/>
<feColorMatrix type="matrix" values="0 0 0 0 0 0 0 0 0 0 0 0 0 0 0 0 0 0 0.1 0"/>
<feBlend mode="normal" in2="BackgroundImageFix" result="effect1_dropShadow"/>
<feBlend mode="normal" in="SourceGraphic" in2="effect1_dropShadow" result="shape"/>
</filter>
<linearGradient id="paint0_linear" x1="123" y1="213.6" x2="124.145" y2="227.908" gradientUnits="userSpaceOnUse">
<stop stop-color="#C2BFFB"/>
<stop offset="1" stop-color="#E3A7FF"/>
</linearGradient>
<linearGradient id="paint1_linear" x1="96" y1="225" x2="132" y2="261" gradientUnits="userSpaceOnUse">
<stop stop-color="#C2BFFB"/>
<stop offset="1" stop-color="#E3A7FF"/>
</linearGradient>
<linearGradient id="paint2_linear" x1="51" y1="117.6" x2="52.1447" y2="131.908" gradientUnits="userSpaceOnUse">
<stop stop-color="#C2BFFB"/>
<stop offset="1" stop-color="#E3A7FF"/>
</linearGradient>
<linearGradient id="paint3_linear" x1="132" y1="21.6" x2="133.426" y2="35.8574" gradientUnits="userSpaceOnUse">
<stop stop-color="#C2BFFB"/>
<stop offset="1" stop-color="#E3A7FF"/>
</linearGradient>
<linearGradient id="paint4_linear" x1="96" y1="33" x2="132" y2="69" gradientUnits="userSpaceOnUse">
<stop stop-color="#C2BFFB"/>
<stop offset="1" stop-color="#E3A7FF"/>
</linearGradient>
</defs>
</svg>
