<svg width="1036" height="667" viewBox="0 0 1036 667" fill="none" xmlns="http://www.w3.org/2000/svg">
<path opacity="0.03" fill-rule="evenodd" clip-rule="evenodd" d="M1035 666H690V333L1035 666Z" fill="black"/>
<path opacity="0.03" fill-rule="evenodd" clip-rule="evenodd" d="M518 500H345V333L518 500Z" fill="black"/>
<path opacity="0.03" fill-rule="evenodd" clip-rule="evenodd" d="M346 667H173V500L346 667Z" fill="black"/>
<path opacity="0.03" fill-rule="evenodd" clip-rule="evenodd" d="M173 500H0V333L173 500Z" fill="black"/>
<path opacity="0.03" fill-rule="evenodd" clip-rule="evenodd" d="M1036 334H863V167L1036 334Z" fill="black"/>
<path fill-rule="evenodd" clip-rule="evenodd" d="M863 334H690V167L863 334Z" fill="black"/>
<path opacity="0.03" fill-rule="evenodd" clip-rule="evenodd" d="M691 167H518V0L691 167Z" fill="black"/>
<path opacity="0.03" fill-rule="evenodd" clip-rule="evenodd" d="M690 333H345V0L690 333Z" fill="black"/>
<path opacity="0.03" fill-rule="evenodd" clip-rule="evenodd" d="M346 334H173V167L346 334Z" fill="black"/>
<path opacity="0.03" fill-rule="evenodd" clip-rule="evenodd" d="M173 167H0V0L173 167Z" fill="black"/>
</svg>
