<svg width="1591" height="1024" viewBox="0 0 1591 1024" fill="none" xmlns="http://www.w3.org/2000/svg">
<path opacity="0.03" fill-rule="evenodd" clip-rule="evenodd" d="M1588.08 1020.91H1059.06V510.453L1588.08 1020.91Z" fill="black"/>
<path opacity="0.03" fill-rule="evenodd" clip-rule="evenodd" d="M795.07 766.195H529.015V510.453L795.07 766.195Z" fill="black"/>
<path opacity="0.03" fill-rule="evenodd" clip-rule="evenodd" d="M532.109 1024H266.054V768.258L532.109 1024Z" fill="black"/>
<path opacity="0.03" fill-rule="evenodd" clip-rule="evenodd" d="M266.054 766.195H0V510.453L266.054 766.195Z" fill="black"/>
<path opacity="0.03" fill-rule="evenodd" clip-rule="evenodd" d="M1590.14 511.484H1324.08V255.742L1590.14 511.484Z" fill="black"/>
<path fill-rule="evenodd" clip-rule="evenodd" d="M1325.12 511.484H1059.06V255.742L1325.12 511.484Z" fill="black"/>
<path opacity="0.03" fill-rule="evenodd" clip-rule="evenodd" d="M1061.12 255.742H795.069V0L1061.12 255.742Z" fill="black"/>
<path opacity="0.03" fill-rule="evenodd" clip-rule="evenodd" d="M1058.03 510.453H529.015V0L1058.03 510.453Z" fill="black"/>
<path fill-rule="evenodd" clip-rule="evenodd" d="M532.109 511.484H266.054V255.742L532.109 511.484Z" fill="black"/>
<path opacity="0.03" fill-rule="evenodd" clip-rule="evenodd" d="M266.054 255.742H0V0L266.054 255.742Z" fill="black"/>
</svg>
