<svg width="305" height="195" viewBox="0 0 305 195" fill="none" xmlns="http://www.w3.org/2000/svg">
<path opacity="0.03" fill-rule="evenodd" clip-rule="evenodd" d="M305 195H203.333V97.5L305 195Z" fill="white"/>
<path opacity="0.03" fill-rule="evenodd" clip-rule="evenodd" d="M152.5 146.25H101.667V97.5L152.5 146.25Z" fill="white"/>
<path opacity="0.03" fill-rule="evenodd" clip-rule="evenodd" d="M101.667 195H50.8335V146.25L101.667 195Z" fill="white"/>
<path opacity="0.03" fill-rule="evenodd" clip-rule="evenodd" d="M50.8333 146.25H0V97.5L50.8333 146.25Z" fill="white"/>
<path opacity="0.03" fill-rule="evenodd" clip-rule="evenodd" d="M305 97.5H254.167V48.75L305 97.5Z" fill="white"/>
<path opacity="0.03" fill-rule="evenodd" clip-rule="evenodd" d="M254.167 97.5H203.333V48.75L254.167 97.5Z" fill="white"/>
<path opacity="0.03" fill-rule="evenodd" clip-rule="evenodd" d="M203.333 48.75H152.5V0L203.333 48.75Z" fill="white"/>
<path opacity="0.03" fill-rule="evenodd" clip-rule="evenodd" d="M203.333 97.5H101.667V0L203.333 97.5Z" fill="white"/>
<path opacity="0.03" fill-rule="evenodd" clip-rule="evenodd" d="M101.667 97.5H50.8335V48.75L101.667 97.5Z" fill="white"/>
<path opacity="0.03" fill-rule="evenodd" clip-rule="evenodd" d="M50.8333 48.75H0V0L50.8333 48.75Z" fill="white"/>
</svg>
