<svg width="581" height="372" viewBox="0 0 581 372" fill="none" xmlns="http://www.w3.org/2000/svg">
<g opacity="0.02">
<path fill-rule="evenodd" clip-rule="evenodd" d="M581 372H387V186L581 372Z" fill="black"/>
<path fill-rule="evenodd" clip-rule="evenodd" d="M291 279H194V186L291 279Z" fill="black"/>
<path fill-rule="evenodd" clip-rule="evenodd" d="M194 371H97V278L194 371Z" fill="black"/>
<path fill-rule="evenodd" clip-rule="evenodd" d="M97 279H0V186L97 279Z" fill="black"/>
<path fill-rule="evenodd" clip-rule="evenodd" d="M581 186H484V93L581 186Z" fill="black"/>
<path fill-rule="evenodd" clip-rule="evenodd" d="M484 186H387V93L484 186Z" fill="black"/>
<path fill-rule="evenodd" clip-rule="evenodd" d="M388 93H291V0L388 93Z" fill="black"/>
<path fill-rule="evenodd" clip-rule="evenodd" d="M388 186H194V0L388 186Z" fill="black"/>
<path fill-rule="evenodd" clip-rule="evenodd" d="M194 186H97V93L194 186Z" fill="black"/>
<path fill-rule="evenodd" clip-rule="evenodd" d="M97 93H0V0L97 93Z" fill="black"/>
</g>
</svg>
