<svg width="1591" height="1024" viewBox="0 0 1591 1024" fill="none" xmlns="http://www.w3.org/2000/svg">
<path opacity="0.03" fill-rule="evenodd" clip-rule="evenodd" d="M1588.97 1022.46H1059.31V511.232L1588.97 1022.46Z" fill="black"/>
<path opacity="0.03" fill-rule="evenodd" clip-rule="evenodd" d="M795.25 767.616H529.655V511.232L795.25 767.616Z" fill="black"/>
<path opacity="0.03" fill-rule="evenodd" clip-rule="evenodd" d="M531.19 1024H265.595V767.616L531.19 1024Z" fill="black"/>
<path opacity="0.03" fill-rule="evenodd" clip-rule="evenodd" d="M265.595 767.616H0V511.232L265.595 767.616Z" fill="black"/>
<path opacity="0.03" fill-rule="evenodd" clip-rule="evenodd" d="M1590.5 512.768H1324.91V256.384L1590.5 512.768Z" fill="black"/>
<path opacity="0.03" fill-rule="evenodd" clip-rule="evenodd" d="M1324.91 512.768H1059.31V256.384L1324.91 512.768Z" fill="black"/>
<path fill-rule="evenodd" clip-rule="evenodd" d="M1060.85 256.384H795.25V0L1060.85 256.384Z" fill="black"/>
<path opacity="0.03" fill-rule="evenodd" clip-rule="evenodd" d="M1059.31 511.232H529.655V0L1059.31 511.232Z" fill="black"/>
<path opacity="0.03" fill-rule="evenodd" clip-rule="evenodd" d="M531.19 512.768H265.595V256.384L531.19 512.768Z" fill="black"/>
<path fill-rule="evenodd" clip-rule="evenodd" d="M265.595 256.384H0V0L265.595 256.384Z" fill="black"/>
</svg>
